<svg width="102" height="102" viewBox="0 0 102 102" fill="none" xmlns="http://www.w3.org/2000/svg"><rect width="102" height="102" rx="20" fill="#3ADAD9"/><g clip-path="url(#a)" fill="#fff"><path d="M50.6 33.087a1.538 1.538 0 0 1-1.538-1.538v-4.011a1.538 1.538 0 0 1 3.076 0v4.011a1.54 1.54 0 0 1-1.538 1.538Zm13.47 5.58a1.538 1.538 0 0 1-1.087-2.626l2.838-2.837a1.538 1.538 0 1 1 2.175 2.175l-2.837 2.837c-.301.3-.695.45-1.089.45Zm9.592 13.471H69.65a1.538 1.538 0 0 1 0-3.075h4.012a1.538 1.538 0 0 1 0 3.075Zm-6.754 16.307a1.53 1.53 0 0 1-1.087-.45l-2.837-2.838a1.538 1.538 0 1 1 2.175-2.175l2.837 2.837a1.538 1.538 0 0 1-1.088 2.626Zm-32.616 0a1.538 1.538 0 0 1-1.087-2.626l2.838-2.837a1.538 1.538 0 1 1 2.175 2.175l-2.837 2.837a1.533 1.533 0 0 1-1.089.451ZM31.55 52.138h-4.012a1.538 1.538 0 0 1 0-3.075h4.011a1.538 1.538 0 0 1 0 3.075Zm5.58-13.471c-.394 0-.788-.15-1.087-.451l-2.837-2.837a1.538 1.538 0 1 1 2.175-2.175l2.837 2.837a1.538 1.538 0 0 1-1.088 2.626ZM56.75 69.05v2.563a3.605 3.605 0 0 1-3.588 3.587h-5.125c-1.721 0-3.587-1.312-3.587-4.182V69.05h12.3Zm2.89-29.602c-3.362-2.727-7.79-3.793-12.115-2.87-5.433 1.127-9.84 5.555-10.968 10.988-1.148 5.576.943 11.11 5.412 14.493 1.21.902 2.05 2.296 2.337 3.916v.02c.041-.02.103-.02.144-.02h12.3c.04 0 .061 0 .102.02v-.02c.287-1.558 1.21-2.993 2.624-4.1 3.465-2.747 5.474-6.847 5.474-11.275 0-4.346-1.927-8.405-5.31-11.152Zm-9.809 10.64h1.538a4.36 4.36 0 0 1 4.356 4.356 4.356 4.356 0 0 1-3.588 4.278v2.64a1.538 1.538 0 0 1-3.075 0V58.8h-2.05a1.538 1.538 0 0 1 0-3.075h4.357a1.282 1.282 0 0 0 0-2.563H49.83a4.36 4.36 0 0 1-4.356-4.356 4.356 4.356 0 0 1 3.587-4.278v-2.64a1.538 1.538 0 0 1 3.075 0v2.562h2.05a1.538 1.538 0 0 1 0 3.075H49.83a1.282 1.282 0 0 0 0 2.562Z"/><path d="M44.306 65.975h.145c-.042 0-.103 0-.145.02v-.02Zm12.548 0v.02c-.042-.02-.062-.02-.104-.02h.104Z"/></g><defs><clipPath id="a"><path fill="#fff" transform="translate(26 26)" d="M0 0h49.2v49.2H0z"/></clipPath></defs></svg>