<svg width="102" height="102" viewBox="0 0 102 102" fill="none" xmlns="http://www.w3.org/2000/svg"><rect width="102" height="102" rx="26" fill="#FED369"/><path d="M32.305 61.005a2.145 2.145 0 0 0 1.522-.63l12.11-12.111 4.936 4.935a2.151 2.151 0 0 0 3.044 0l13.545-13.544-.001 4.847a2.153 2.153 0 0 0 4.305 0l.001-10.045a2.153 2.153 0 0 0-2.152-2.152H59.57a2.152 2.152 0 0 0 0 4.305h4.848L52.395 48.633l-4.935-4.935a2.153 2.153 0 0 0-3.045 0L30.783 57.33a2.153 2.153 0 0 0 1.522 3.675Zm37.31 4.305h-37.31a2.153 2.153 0 0 0 0 4.305h37.31a2.153 2.153 0 0 0 0-4.305Z" fill="#fff"/></svg>